<?xml version="1.0" encoding="UTF-8"?>
<svg id="Camada_2" data-name="Camada 2" xmlns="http://www.w3.org/2000/svg" viewBox="0 0 722.67 195.04">
  <defs>
    <style>
      .cls-1 {
        stroke-width: 0px;
      }
    </style>
  </defs>
  <g id="Camada_1-2" data-name="Camada 1">
    <g>
      <g>
        <path class="cls-1" d="M0,136.07V0h73.08v16.91H14.79v119.16H0ZM13.32,81.06v-16.72h53.41v16.72H13.32Z"/>
        <path class="cls-1" d="M73.53,136.07l46.9-87.39h14.65l47.05,87.39h-15.53l-41.87-80.4h5.92l-41.87,80.4h-15.24ZM93.5,114.23l4-9.99h58.29l4.29,9.99h-66.58Z"/>
        <path class="cls-1" d="M197.5,136.07V48.69h40.39c13.41,0,23.97,2.68,31.66,8.05,7.69,5.37,11.54,12.84,11.54,22.41,0,6.33-1.73,11.76-5.18,16.29-3.45,4.54-8.38,8.01-14.79,10.42-6.41,2.41-14.15,3.62-23.23,3.62h-32.25l6.66-5.74v32.33h-14.79ZM212.3,104.99l-6.66-6.12h31.81c9.47,0,16.64-1.73,21.53-5.18,4.88-3.45,7.32-8.3,7.32-14.54s-2.44-11.07-7.32-14.48c-4.88-3.41-12.06-5.12-21.53-5.12h-31.81l6.66-6.24v51.68ZM266.74,136.07l-26.33-31.71h15.83l26.63,31.71h-16.13Z"/>
        <path class="cls-1" d="M305.06,136.07V48.69h12.13l46.45,66.04h-6.51l45.86-66.04h12.13l.15,87.39h-14.2l-.15-68.54h3.4l-40.83,57.92h-6.81l-41.13-57.92h3.7v68.54h-14.2Z"/>
        <path class="cls-1" d="M474.01,136.07l-45.57-87.39h15.98l41.87,80.65h-9.17l42.17-80.65h14.79l-45.42,87.39h-14.65Z"/>
        <path class="cls-1" d="M547.24,136.07V48.69h73.08v10.86h-58.29v65.66h60.36v10.86h-75.16ZM560.7,97v-10.61h53.26v10.61h-53.26Z"/>
        <path class="cls-1" d="M666.93,136.07V59.55h-35.51v-10.86h85.66v10.86h-35.51v76.53h-14.65Z"/>
      </g>
      <g>
        <path class="cls-1" d="M438.65,194.63v-35.88h14.09c3.17,0,5.87.5,8.11,1.49,2.24.99,3.96,2.43,5.16,4.31,1.2,1.88,1.81,4.12,1.81,6.71s-.6,4.83-1.81,6.69c-1.21,1.86-2.93,3.3-5.16,4.3-2.24,1.01-4.94,1.51-8.11,1.51h-11.25l2.32-2.41v13.28h-5.16ZM443.82,181.87l-2.32-2.56h11.1c3.3,0,5.81-.7,7.51-2.1,1.7-1.4,2.56-3.38,2.56-5.95s-.85-4.54-2.56-5.95c-1.7-1.4-4.21-2.1-7.51-2.1h-11.1l2.32-2.56v21.22Z"/>
        <path class="cls-1" d="M475.41,194.63v-35.88h25.51v4.46h-20.34v26.96h21.07v4.46h-26.23ZM480.11,178.59v-4.36h18.59v4.36h-18.59Z"/>
        <path class="cls-1" d="M517.18,194.63v-31.42h-12.39v-4.46h29.89v4.46h-12.39v31.42h-5.11Z"/>
        <path class="cls-1" d="M564.73,195.04c-2.75,0-5.39-.42-7.9-1.26-2.51-.84-4.49-1.92-5.94-3.25l1.91-4c1.38,1.2,3.13,2.19,5.27,2.97s4.35,1.18,6.66,1.18c2.1,0,3.8-.24,5.11-.72,1.31-.48,2.27-1.14,2.89-1.97.62-.84.93-1.79.93-2.84,0-1.23-.41-2.22-1.21-2.97s-1.86-1.36-3.15-1.82c-1.29-.46-2.71-.86-4.26-1.2-1.55-.34-3.11-.74-4.67-1.2s-2.99-1.05-4.29-1.77c-1.29-.72-2.33-1.68-3.12-2.9-.79-1.21-1.19-2.78-1.19-4.69s.49-3.54,1.47-5.1c.98-1.55,2.5-2.8,4.54-3.74,2.05-.94,4.65-1.41,7.82-1.41,2.1,0,4.18.27,6.25.82,2.07.55,3.85,1.33,5.37,2.36l-1.7,4.1c-1.55-1.02-3.18-1.77-4.9-2.23-1.72-.46-3.39-.69-5.01-.69-2.03,0-3.7.26-5.01.77-1.31.51-2.26,1.2-2.87,2.05-.6.85-.9,1.81-.9,2.87,0,1.26.4,2.27,1.21,3.02.81.75,1.86,1.35,3.15,1.79,1.29.44,2.71.85,4.26,1.2s3.11.76,4.67,1.2c1.57.44,3,1.02,4.29,1.74,1.29.72,2.33,1.67,3.12,2.87.79,1.2,1.19,2.73,1.19,4.61s-.5,3.49-1.5,5.05c-1,1.56-2.54,2.8-4.62,3.74-2.08.94-4.71,1.41-7.87,1.41Z"/>
        <path class="cls-1" d="M592.92,194.63v-31.42h-12.39v-4.46h29.89v4.46h-12.39v31.42h-5.11Z"/>
        <path class="cls-1" d="M631.85,195.04c-2.75,0-5.31-.46-7.67-1.38-2.36-.92-4.4-2.21-6.12-3.87-1.72-1.66-3.06-3.6-4.03-5.82-.96-2.22-1.45-4.65-1.45-7.28s.48-5.06,1.45-7.28c.96-2.22,2.31-4.16,4.03-5.82,1.72-1.66,3.75-2.95,6.09-3.87,2.34-.92,4.91-1.38,7.69-1.38s5.29.45,7.62,1.36c2.32.91,4.35,2.19,6.09,3.84,1.74,1.66,3.08,3.6,4.03,5.82.95,2.22,1.42,4.66,1.42,7.33s-.47,5.11-1.42,7.33-2.29,4.16-4.03,5.82c-1.74,1.66-3.77,2.94-6.09,3.84-2.32.91-4.86,1.36-7.62,1.36ZM631.85,190.48c2,0,3.85-.34,5.55-1.03,1.7-.68,3.18-1.65,4.44-2.89,1.26-1.25,2.24-2.71,2.94-4.38.71-1.67,1.06-3.5,1.06-5.48s-.35-3.81-1.06-5.48c-.71-1.67-1.69-3.13-2.94-4.38-1.26-1.25-2.74-2.21-4.44-2.9-1.7-.68-3.55-1.02-5.55-1.02s-3.9.34-5.6,1.02c-1.7.68-3.19,1.65-4.47,2.9-1.27,1.25-2.26,2.71-2.97,4.38-.71,1.67-1.06,3.5-1.06,5.48s.35,3.81,1.06,5.48,1.7,3.13,2.97,4.38c1.27,1.25,2.76,2.21,4.47,2.89,1.7.68,3.57,1.03,5.6,1.03Z"/>
        <path class="cls-1" d="M658.9,194.63v-35.88h14.09c4.68,0,8.36,1.1,11.05,3.31,2.69,2.2,4.03,5.27,4.03,9.2,0,2.6-.6,4.83-1.81,6.69-1.21,1.86-2.93,3.29-5.16,4.28-2.24.99-4.94,1.49-8.11,1.49h-11.25l2.32-2.36v13.28h-5.16ZM664.07,181.87l-2.32-2.51h11.1c3.3,0,5.81-.71,7.51-2.13,1.7-1.42,2.56-3.41,2.56-5.97s-.85-4.54-2.56-5.95c-1.7-1.4-4.21-2.1-7.51-2.1h-11.1l2.32-2.56v21.22ZM683.07,194.63l-9.19-13.02h5.52l9.29,13.02h-5.63Z"/>
        <path class="cls-1" d="M696.44,194.63v-35.88h25.51v4.46h-20.34v26.96h21.07v4.46h-26.23ZM701.14,178.59v-4.36h18.59v4.36h-18.59Z"/>
      </g>
    </g>
  </g>
</svg>